<svg width="19" height="19" viewBox="0 0 19 19" fill="none" xmlns="http://www.w3.org/2000/svg">
<path d="M14.7073 10.293C14.6145 10.2 14.5043 10.1263 14.383 10.076C14.2617 10.0257 14.1317 9.99976 14.0003 9.99976C13.869 9.99976 13.739 10.0257 13.6176 10.076C13.4963 10.1263 13.3861 10.2 13.2933 10.293L11.6993 11.887C10.9603 11.667 9.58133 11.167 8.70733 10.293C7.83333 9.41896 7.33333 8.03996 7.11333 7.30096L8.70733 5.70696C8.80028 5.61417 8.87402 5.50397 8.92433 5.38265C8.97464 5.26134 9.00054 5.13129 9.00054 4.99996C9.00054 4.86862 8.97464 4.73858 8.92433 4.61726C8.87402 4.49595 8.80028 4.38575 8.70733 4.29296L4.70733 0.292957C4.61455 0.200011 4.50434 0.126273 4.38303 0.0759627C4.26171 0.0256519 4.13167 -0.000244141 4.00033 -0.000244141C3.869 -0.000244141 3.73896 0.0256519 3.61764 0.0759627C3.49633 0.126273 3.38612 0.200011 3.29333 0.292957L0.581334 3.00496C0.201334 3.38496 -0.0126663 3.90696 -0.00466627 4.43996C0.0183337 5.86396 0.395334 10.81 4.29333 14.708C8.19133 18.606 13.1373 18.982 14.5623 19.006H14.5903C15.1183 19.006 15.6173 18.798 15.9953 18.42L18.7073 15.708C18.8003 15.6152 18.874 15.505 18.9243 15.3837C18.9746 15.2623 19.0005 15.1323 19.0005 15.001C19.0005 14.8696 18.9746 14.7396 18.9243 14.6183C18.874 14.4969 18.8003 14.3867 18.7073 14.294L14.7073 10.293ZM14.5803 17.005C13.3323 16.984 9.06233 16.649 5.70733 13.293C2.34133 9.92696 2.01533 5.64196 1.99533 4.41896L4.00033 2.41396L6.58633 4.99996L5.29333 6.29296C5.1758 6.41041 5.08938 6.55529 5.04189 6.71453C4.9944 6.87376 4.98733 7.04231 5.02133 7.20496C5.04533 7.31996 5.63233 10.047 7.29233 11.707C8.95233 13.367 11.6793 13.954 11.7943 13.978C11.9569 14.0129 12.1256 14.0064 12.285 13.9591C12.4444 13.9117 12.5893 13.825 12.7063 13.707L14.0003 12.414L16.5863 15L14.5803 17.005Z" fill="black"/>
</svg>
